<?xml version="1.0" encoding="UTF-8" standalone="no"?>
<!-- Created with Inkscape (http://www.inkscape.org/) -->
<svg
   xmlns:svg="http://www.w3.org/2000/svg"
   xmlns="http://www.w3.org/2000/svg"
   version="1.0"
   width="130"
   height="130">
  <path
     d="M 43.5,4 L 43.5,44.5 L 8,44.5 L 8,48.5 L 83,48.5 L 83,44.5 L 47.5,44.5 L 47.5,4 L 43.5,4 z M 88.5,46.5 L 88.5,81.5 L 92.5,81.5 L 92.5,66 L 116,66 L 116,124 L 120,124 L 120,64 L 120,62 L 118,62 L 92.5,62 L 92.5,46.5 L 88.5,46.5 z M 8.5,52 L 8.5,54 L 8.5,74 L 8.5,76 L 10.5,76 L 80.5,76 L 82.5,76 L 82.5,74 L 82.5,54 L 82.5,52 L 80.5,52 L 10.5,52 L 8.5,52 z M 12.5,56 L 78.5,56 L 78.5,72 L 12.5,72 L 12.5,56 z M 8,79.5 L 8,83.5 L 43.5,83.5 L 43.5,124 L 47.5,124 L 47.5,83.5 L 83,83.5 L 83,79.5 L 8,79.5 z"
     style="fill:#000000;fill-opacity:1;fill-rule:evenodd;stroke:none;stroke-width:4;stroke-linecap:butt;stroke-linejoin:miter;stroke-miterlimit:4;stroke-dasharray:none;stroke-opacity:1" />
</svg>
