<svg xmlns="http://www.w3.org/2000/svg" width="36" height="36" viewBox="0 0 36 36">
    <defs>
        <filter id="13unoxg4na" color-interpolation-filters="auto">
            <feColorMatrix in="SourceGraphic" values="0 0 0 0 0.329412 0 0 0 0 0.329412 0 0 0 0 0.329412 0 0 0 1.000000 0"/>
        </filter>
    </defs>
    <g fill="none" fill-rule="evenodd">
        <g>
            <g>
                <g>
                    <path fill-rule="nonzero" d="M0 0h36v36H0V0z" transform="translate(-1027.000000, -80.000000) translate(751.000000, 54.000000) translate(276.000000, 26.000000)"/>
                    <g filter="url(#13unoxg4na)" transform="translate(-1027.000000, -80.000000) translate(751.000000, 54.000000) translate(276.000000, 26.000000)">
                        <g fill="#545454">
                            <path d="M21 0H3C1.3 0 0 1.4 0 3.1v12.5c0 1.7 1.3 3.1 3 3.1h4.5c.3 0 .5.2.5.5v3.7c0 .3.2.5.5.5.1 0 .2 0 .3-.1l5.4-4.4c.1-.1.2-.1.3-.1H21c1.7 0 3-1.4 3-3.1V3.1C24 1.4 22.7 0 21 0m0 2c.5 0 1 .5 1 1.1v12.5c0 .6-.4 1.1-1 1.1h-6.5c-.6 0-1.2.2-1.6.6L10 19.7v-.4c0-1.4-1.1-2.5-2.5-2.5H3c-.5 0-1-.5-1-1.1V3.1C2 2.5 2.5 2 3 2h18" transform="translate(6.000000, 7.000000)"/>
                            <path d="M5 7L19 7 19 5 5 5zM5 11L16 11 16 9 5 9z" transform="translate(6.000000, 7.000000)"/>
                        </g>
                    </g>
                </g>
            </g>
        </g>
    </g>
</svg>
