<svg xmlns="http://www.w3.org/2000/svg" width="36" height="36" viewBox="0 0 36 36">
    <g fill="none" fill-rule="evenodd">
        <g>
            <g>
                <path d="M0 0H36V36H0z" transform="translate(-2047.000000, -893.000000) translate(2047.000000, 893.000000)"/>
                <g>
                    <path fill="#545454" d="M10 0c5.523 0 10 4.477 10 10s-4.477 10-10 10S0 15.523 0 10 4.477 0 10 0zm0 2c-4.418 0-8 3.582-8 8s3.582 8 8 8 8-3.582 8-8-3.582-8-8-8z" transform="translate(-2047.000000, -893.000000) translate(2047.000000, 893.000000) translate(8.000000, 8.000000)"/>
                    <path fill-rule="nonzero" d="M10 2c-4.418 0-8 3.582-8 8s3.582 8 8 8 8-3.582 8-8-3.582-8-8-8z" transform="translate(-2047.000000, -893.000000) translate(2047.000000, 893.000000) translate(8.000000, 8.000000)"/>
                </g>
            </g>
        </g>
    </g>
</svg>
