<svg xmlns="http://www.w3.org/2000/svg" width="36" height="36" viewBox="0 0 36 36">
    <g fill="none" fill-rule="evenodd">
        <g>
            <g>
                <path d="M0 0H36V36H0z" transform="translate(-1717.000000, -1082.000000) translate(1717.000000, 1082.000000)"/>
                <g fill="#0481A0">
                    <path d="M15 0v5h-2.001L13 2H7v5H2v9h3v2H0V6l6-6h9z" transform="translate(-1717.000000, -1082.000000) translate(1717.000000, 1082.000000) translate(7.000000, 5.500000)"/>
                    <path d="M16 7H7v18h15V13l-6-6zM9 23V9h6v5h5v9H9z" transform="translate(-1717.000000, -1082.000000) translate(1717.000000, 1082.000000) translate(7.000000, 5.500000) translate(14.500000, 16.000000) scale(-1, 1) translate(-14.500000, -16.000000)"/>
                </g>
            </g>
        </g>
    </g>
</svg>
