<svg xmlns="http://www.w3.org/2000/svg" width="36" height="36" viewBox="0 0 36 36">
    <g fill="none" fill-rule="evenodd">
        <g>
            <g>
                <path d="M0 0H36V36H0z" transform="translate(-1717.000000, -988.000000) translate(1717.000000, 988.000000)"/>
                <g transform="translate(-1717.000000, -988.000000) translate(1717.000000, 988.000000) translate(7.000000, 7.000000)">
                    <circle cx="11" cy="11" r="11" fill="#D8EFF5"/>
                    <g fill="#545454">
                        <path d="M12.833 9.9c0-3.667-5.5-9.9-5.5-9.9S6.114 1.384 4.831 3.227l7.874 7.874c.082-.385.128-.789.128-1.201zm-.806 2.86L7.792 8.525 1.164 1.897 0 3.071l3.043 3.043c-.706 1.33-1.21 2.677-1.21 3.786 0 3.034 2.466 5.5 5.5 5.5 1.394 0 2.659-.523 3.63-1.375l2.411 2.41 1.164-1.163-2.511-2.512z" transform="translate(3.666667, 2.500000)"/>
                    </g>
                </g>
            </g>
        </g>
    </g>
</svg>
