<svg xmlns="http://www.w3.org/2000/svg" xmlns:xlink="http://www.w3.org/1999/xlink" width="36" height="36" viewBox="0 0 36 36">
    <defs>
        <filter id="pewrl0ivoa" color-interpolation-filters="auto">
            <feColorMatrix in="SourceGraphic" values="0 0 0 0 0.015686 0 0 0 0 0.505882 0 0 0 0 0.627451 0 0 0 1.000000 0"/>
        </filter>
        <path id="jzswop220b" d="M0.233 0.916L3.981 0.916 3.981 6 0.233 6z"/>
    </defs>
    <g fill="none" fill-rule="evenodd">
        <g>
            <g>
                <path d="M0 0H36V36H0z" transform="translate(-2177.000000, -942.000000) translate(2177.000000, 942.000000)"/>
                <g>
                    <path fill-rule="nonzero" d="M0 17.999H26V22.999H0z" transform="translate(-2177.000000, -942.000000) translate(2177.000000, 942.000000) translate(5.000000, 7.000575)"/>
                    <path id="color_fill_bar" fill="#545454" d="M0 18H26V23H0z" transform="translate(-2131.000000, -942.000000) translate(2131.000000, 942.000000) translate(5.000000, 7.000000)"/>
                    <path id="color_fill_outline" fill="#979797" d="M26 18v5H0v-5h26zm-.5.5H.5v4h25v-4z" transform="translate(-2177.000000, -942.000000) translate(2177.000000, 942.000000) translate(5.000000, 7.000575)"/>
                    <g filter="url(#pewrl0ivoa)" transform="translate(-2177.000000, -942.000000) translate(2177.000000, 942.000000) translate(5.000000, 7.000575)">
                        <g>
                            <path fill="#000" d="M7.01 4.07l4.427 4.427H2.583L7.01 4.07zm6.717 4.243L5.67.257c-.34-.342-.893-.342-1.235-.001-.344.34-.344.896-.002 1.238l1.34 1.34-5.48 5.479c-.39.39-.39 1.024 0 1.414l6.01 6.01c.196.195.452.293.709.293.255 0 .511-.098.707-.293l6.01-6.01c.39-.39.39-1.023 0-1.414z" transform="translate(4.000300, 0.000000)"/>
                            <g transform="translate(4.000300, 0.000000) translate(13.999700, 10.104325)">
                                <mask id="qovu9a5t3c" fill="#fff">
                                    <use xlink:href="#jzswop220b"/>
                                </mask>
                                <path fill="#000" d="M3.98 4.126C3.98 5.16 3.143 6 2.107 6 1.07 6 .232 5.16.232 4.126c0-1.52 1.891-3.21 1.891-3.21S3.98 2.582 3.98 4.126" mask="url(#qovu9a5t3c)"/>
                            </g>
                        </g>
                    </g>
                </g>
            </g>
        </g>
    </g>
</svg>
