<svg xmlns="http://www.w3.org/2000/svg" width="24" height="24" viewBox="0 0 24 24">
    <g fill="none" fill-rule="evenodd">
        <g>
            <g>
                <path d="M0 0H24V24H0z" transform="translate(-1991.000000, -1084.000000) translate(1991.000000, 1084.000000)"/>
                <path fill="#545454" d="M19.53 16.47c.267.266.29.683.073.976l-.073.084-2 2c-.293.293-.767.293-1.06 0-.267-.266-.29-.683-.073-.976l.073-.084 2-2c.293-.293.767-.293 1.06 0zm0-6c.267.266.29.683.073.976l-.073.084-8 8c-.293.293-.767.293-1.06 0-.267-.266-.29-.683-.073-.976l.073-.084 8-8c.293-.293.767-.293 1.06 0zm0-6c.267.266.29.683.073.976l-.073.084-14 14c-.293.293-.767.293-1.06 0-.267-.266-.29-.683-.073-.976l.073-.084 14-14c.293-.293.767-.293 1.06 0z" transform="translate(-1991.000000, -1084.000000) translate(1991.000000, 1084.000000)"/>
            </g>
        </g>
    </g>
</svg>
