<svg xmlns="http://www.w3.org/2000/svg" width="36" height="36" viewBox="0 0 36 36">
    <g fill="none" fill-rule="evenodd">
        <g>
            <g>
                <path d="M0 0H36V36H0z" transform="translate(-1763.000000, -892.000000) translate(1763.000000, 892.000000)"/>
                <g fill="#545454">
                    <path d="M3.22 15.732h1.755v1.348l-2.36.42-1.137-1.156.413-2.394h1.328v1.782zm1.32-3.121c-.202-.204-.202-.531 0-.735l5.635-5.715c.2-.203.522-.203.724 0 .201.204.201.531 0 .735L5.265 12.61c-.201.203-.524.203-.725 0zm5.857-8.91L.79 13.445l-.775 4.51c-.106.61.416 1.135 1.016 1.032l4.446-.79 9.609-9.745c.172-.175.172-.457 0-.63L11.023 3.7c-.175-.174-.453-.174-.626 0zm7.82 1.57L16.53 6.983c-.172.172-.45.172-.621 0l-4.062-4.12c-.173-.176-.173-.458 0-.63L13.534.52c.684-.695 1.797-.695 2.483 0l2.2 2.23c.688.693.688 1.821 0 2.52z" transform="translate(-1763.000000, -892.000000) translate(1763.000000, 892.000000) translate(8.235270, 8.500000)"/>
                </g>
            </g>
        </g>
    </g>
</svg>
