<svg xmlns="http://www.w3.org/2000/svg" width="36" height="36" viewBox="0 0 36 36">
    <g fill="none" fill-rule="evenodd">
        <g>
            <g>
                <path d="M0 0H36V36H0z" transform="translate(-1901.000000, -1082.000000) translate(1901.000000, 1082.000000)"/>
                <g>
                    <path d="M0 0L24 0 24 24 0 24z" transform="translate(-1901.000000, -1082.000000) translate(1901.000000, 1082.000000) translate(6.000000, 6.000000)"/>
                    <path fill="#0481A0" d="M18.4 10.6C16.55 8.99 14.15 8 11.5 8c-4.65 0-8.58 3.03-9.96 7.22L3.9 16c1.05-3.19 4.05-5.5 7.6-5.5 1.95 0 3.73.72 5.12 1.88L13 16h9V7l-3.6 3.6z" transform="translate(-1901.000000, -1082.000000) translate(1901.000000, 1082.000000) translate(6.000000, 6.000000)"/>
                </g>
            </g>
        </g>
    </g>
</svg>
