<svg xmlns="http://www.w3.org/2000/svg" width="36" height="36" viewBox="0 0 36 36">
    <g fill="none" fill-rule="evenodd">
        <g>
            <g>
                <path d="M0 0H36V36H0z" transform="translate(-2039.000000, -942.000000) translate(2039.000000, 942.000000)"/>
                <path fill="#545454" d="M9 22v6h18v-6c0-1.1-1.012-2-2.25-2h-13.5C10.012 20 9 20.9 9 22zm16 2H11v-2h14v2zM18 8c-2.76 0-5 2.24-5 5l5 7 5-7c0-2.76-2.24-5-5-5zm0 9l-3-4c0-1.66 1.34-3 3-3s3 1.34 3 3l-3 4z" transform="translate(-2039.000000, -942.000000) translate(2039.000000, 942.000000)"/>
            </g>
        </g>
    </g>
</svg>
