<svg xmlns="http://www.w3.org/2000/svg" width="36" height="36" viewBox="0 0 36 36">
    <g fill="none" fill-rule="evenodd">
        <g>
            <g>
                <path d="M0 0H36V36H0z" transform="translate(-1855.000000, -1082.000000) translate(1855.000000, 1082.000000)"/>
                <g>
                    <path d="M0 0L24 0 24 24 0 24z" transform="translate(-1855.000000, -1082.000000) translate(1855.000000, 1082.000000) translate(6.000000, 6.000000)"/>
                    <path fill="#0481A0" d="M12.5 8c-2.65 0-5.05.99-6.9 2.6L2 7v9h9l-3.62-3.62c1.39-1.16 3.16-1.88 5.12-1.88 3.54 0 6.55 2.31 7.6 5.5l2.37-.78C21.08 11.03 17.15 8 12.5 8z" transform="translate(-1855.000000, -1082.000000) translate(1855.000000, 1082.000000) translate(6.000000, 6.000000)"/>
                </g>
            </g>
        </g>
    </g>
</svg>
